<?xml version="1.0" encoding="utf-8"?>
<!-- Generator: Adobe Illustrator 25.0.0, SVG Export Plug-In . SVG Version: 6.00 Build 0)  -->
<svg version="1.1" id="Layer_1" xmlns="http://www.w3.org/2000/svg" xmlns:xlink="http://www.w3.org/1999/xlink" x="0px" y="0px"
	 viewBox="0 0 36 36" style="enable-background:new 0 0 36 36;" xml:space="preserve">
<style type="text/css">
	.st0{fill:#333333;}
</style>
<path class="st0" d="M4.9,9.1c0.9-0.7,2.4-0.5,3.2,0.2l-1-1.4C6.3,6.8,6.6,5.6,7.7,4.8C8.8,4,12,6.1,12,6.1
	c-0.8-1.1-0.6-2.5,0.5-3.3c1.1-0.8,2.7-0.5,3.5,0.6l10.4,14.7L25,31l-11.1-4L4.2,12.6C3.5,11.5,3.7,9.9,4.9,9.1z"/>
<path class="st0" d="M2.7,17.3c0,0-1.1-1.6,0.5-2.8C4.9,13.4,6,15.1,6,15.1l5.3,7.7c0.2-0.3,0.4-0.6,0.6-0.9L4.6,11.2
	c0,0-1.1-1.6,0.5-2.8c1.6-1.1,2.8,0.5,2.8,0.5l6.9,10c0.3-0.2,0.5-0.4,0.8-0.6L7.5,6.7c0,0-1.1-1.6,0.5-2.8c1.6-1.1,2.8,0.5,2.8,0.5
	l7.9,11.6c0.3-0.2,0.6-0.3,0.9-0.5L12.2,4.7c0,0-1.1-1.6,0.5-2.8s2.8,0.5,2.8,0.5l7.9,11.5l1.2,1.7c-4.9,3.4-5.4,9.8-2.6,13.9
	c0.6,0.8,1.4,0.3,1.4,0.3C20,24.9,21,19.3,26,15.9l-1.5-7.3c0,0-0.5-1.9,1.4-2.5c1.9-0.5,2.5,1.4,2.5,1.4l1.7,5c0.7,2,1.4,4,2.3,5.8
	c2.7,5.3,1.1,11.8-3.9,15.3C23,37.4,15.5,36,11.7,30.5L2.7,17.3z"/>
<g>
	<path class="st0" d="M12,32c-4,0-8-4-8-8c0-0.6-0.4-1-1-1s-1,0.4-1,1c0,6,4,10,10,10c0.6,0,1-0.5,1-1S12.6,32,12,32z"/>
	<path class="st0" d="M7,34c-3,0-5-2-5-5c0-0.6-0.4-1-1-1s-1,0.4-1,1c0,4,3,7,7,7c0.6,0,1-0.4,1-1S7.6,34,7,34z M24,2
		c-0.6,0-1,0.4-1,1s0.4,1,1,1c4,0,8,3.6,8,8c0,0.6,0.4,1,1,1s1-0.4,1-1C34,6.5,30,2,24,2z"/>
	<path class="st0" d="M29,0c-0.6,0-1,0.4-1,1s0.4,1,1,1c3,0,5,2.2,5,5c0,0.6,0.5,1,1,1s1-0.4,1-1C36,3.2,33,0,29,0z"/>
</g>
</svg>
